<svg width="28" height="29" viewBox="0 0 28 29" fill="none" xmlns="http://www.w3.org/2000/svg">
<mask id="mask0_39_358" style="mask-type:alpha" maskUnits="userSpaceOnUse" x="0" y="0" width="28" height="29">
<rect y="0.5" width="28" height="28" fill="#D9D9D9"/>
</mask>
<g mask="url(#mask0_39_358)">
<path d="M7.00008 26.1668C6.35841 26.1668 5.80911 25.9384 5.35216 25.4814C4.89522 25.0245 4.66675 24.4752 4.66675 23.8335V9.8335C4.66675 9.19183 4.89522 8.64252 5.35216 8.18558C5.80911 7.72864 6.35841 7.50016 7.00008 7.50016H9.33341C9.33341 6.21683 9.79036 5.11822 10.7042 4.20433C11.6181 3.29044 12.7167 2.8335 14.0001 2.8335C15.2834 2.8335 16.382 3.29044 17.2959 4.20433C18.2098 5.11822 18.6667 6.21683 18.6667 7.50016H21.0001C21.6417 7.50016 22.1911 7.72864 22.648 8.18558C23.1049 8.64252 23.3334 9.19183 23.3334 9.8335V23.8335C23.3334 24.4752 23.1049 25.0245 22.648 25.4814C22.1911 25.9384 21.6417 26.1668 21.0001 26.1668H7.00008ZM7.00008 23.8335H21.0001V9.8335H18.6667V12.1668C18.6667 12.4974 18.5549 12.7745 18.3313 12.9981C18.1077 13.2217 17.8306 13.3335 17.5001 13.3335C17.1695 13.3335 16.8924 13.2217 16.6688 12.9981C16.4452 12.7745 16.3334 12.4974 16.3334 12.1668V9.8335H11.6667V12.1668C11.6667 12.4974 11.5549 12.7745 11.3313 12.9981C11.1077 13.2217 10.8306 13.3335 10.5001 13.3335C10.1695 13.3335 9.89244 13.2217 9.66883 12.9981C9.44522 12.7745 9.33341 12.4974 9.33341 12.1668V9.8335H7.00008V23.8335ZM11.6667 7.50016H16.3334C16.3334 6.8585 16.1049 6.30919 15.648 5.85225C15.1911 5.3953 14.6417 5.16683 14.0001 5.16683C13.3584 5.16683 12.8091 5.3953 12.3522 5.85225C11.8952 6.30919 11.6667 6.8585 11.6667 7.50016Z" fill="white"/>
</g>
</svg>
