<svg width="17" height="17" viewBox="0 0 17 17" fill="none" xmlns="http://www.w3.org/2000/svg">
<mask id="mask0_42_427" style="mask-type:alpha" maskUnits="userSpaceOnUse" x="0" y="0" width="17" height="17">
<rect x="0.5" y="0.5" width="16" height="16" fill="#D9D9D9"/>
</mask>
<g mask="url(#mask0_42_427)">
<path d="M4 16.5C3.5875 16.5 3.23438 16.3433 2.94063 16.03C2.64688 15.7167 2.5 15.34 2.5 14.9V5.3C2.5 4.86 2.64688 4.48333 2.94063 4.17C3.23438 3.85667 3.5875 3.7 4 3.7H5.5C5.5 2.82 5.79375 2.06667 6.38125 1.44C6.96875 0.813333 7.675 0.5 8.5 0.5C9.325 0.5 10.0312 0.813333 10.6187 1.44C11.2063 2.06667 11.5 2.82 11.5 3.7H13C13.4125 3.7 13.7656 3.85667 14.0594 4.17C14.3531 4.48333 14.5 4.86 14.5 5.3V14.9C14.5 15.34 14.3531 15.7167 14.0594 16.03C13.7656 16.3433 13.4125 16.5 13 16.5H4ZM7 3.7H10C10 3.26 9.85313 2.88333 9.55938 2.57C9.26563 2.25667 8.9125 2.1 8.5 2.1C8.0875 2.1 7.73438 2.25667 7.44063 2.57C7.14687 2.88333 7 3.26 7 3.7ZM10.75 7.7C10.9625 7.7 11.1406 7.62333 11.2844 7.47C11.4281 7.31667 11.5 7.12667 11.5 6.9V5.3H10V6.9C10 7.12667 10.0719 7.31667 10.2156 7.47C10.3594 7.62333 10.5375 7.7 10.75 7.7ZM6.25 7.7C6.4625 7.7 6.64062 7.62333 6.78438 7.47C6.92812 7.31667 7 7.12667 7 6.9V5.3H5.5V6.9C5.5 7.12667 5.57187 7.31667 5.71562 7.47C5.85938 7.62333 6.0375 7.7 6.25 7.7Z" fill="#6C6C6C"/>
</g>
</svg>
