<svg width="28" height="29" viewBox="0 0 28 29" fill="none" xmlns="http://www.w3.org/2000/svg">
<mask id="mask0_39_365" style="mask-type:alpha" maskUnits="userSpaceOnUse" x="0" y="0" width="28" height="29">
<rect y="0.5" width="28" height="28" fill="#D9D9D9"/>
</mask>
<g mask="url(#mask0_39_365)">
<path d="M14.0001 14.4998C12.7167 14.4998 11.6181 14.0429 10.7042 13.129C9.79036 12.2151 9.33341 11.1165 9.33341 9.83317C9.33341 8.54984 9.79036 7.45123 10.7042 6.53734C11.6181 5.62345 12.7167 5.1665 14.0001 5.1665C15.2834 5.1665 16.382 5.62345 17.2959 6.53734C18.2098 7.45123 18.6667 8.54984 18.6667 9.83317C18.6667 11.1165 18.2098 12.2151 17.2959 13.129C16.382 14.0429 15.2834 14.4998 14.0001 14.4998ZM4.66675 23.8332V20.5665C4.66675 19.9054 4.83689 19.2978 5.17716 18.7436C5.51744 18.1894 5.96953 17.7665 6.53341 17.4748C7.73897 16.8721 8.96397 16.42 10.2084 16.1186C11.4529 15.8172 12.7167 15.6665 14.0001 15.6665C15.2834 15.6665 16.5473 15.8172 17.7917 16.1186C19.0362 16.42 20.2612 16.8721 21.4667 17.4748C22.0306 17.7665 22.4827 18.1894 22.823 18.7436C23.1633 19.2978 23.3334 19.9054 23.3334 20.5665V23.8332H4.66675ZM7.00008 21.4998H21.0001V20.5665C21.0001 20.3526 20.9466 20.1582 20.8397 19.9832C20.7327 19.8082 20.5917 19.6721 20.4167 19.5748C19.3667 19.0498 18.307 18.6561 17.2376 18.3936C16.1681 18.1311 15.089 17.9998 14.0001 17.9998C12.9112 17.9998 11.832 18.1311 10.7626 18.3936C9.69314 18.6561 8.63341 19.0498 7.58341 19.5748C7.40841 19.6721 7.26744 19.8082 7.1605 19.9832C7.05355 20.1582 7.00008 20.3526 7.00008 20.5665V21.4998ZM14.0001 12.1665C14.6417 12.1665 15.1911 11.938 15.648 11.4811C16.1049 11.0241 16.3334 10.4748 16.3334 9.83317C16.3334 9.1915 16.1049 8.6422 15.648 8.18525C15.1911 7.72831 14.6417 7.49984 14.0001 7.49984C13.3584 7.49984 12.8091 7.72831 12.3522 8.18525C11.8952 8.6422 11.6667 9.1915 11.6667 9.83317C11.6667 10.4748 11.8952 11.0241 12.3522 11.4811C12.8091 11.938 13.3584 12.1665 14.0001 12.1665Z" fill="white"/>
</g>
</svg>
