<svg width="40" height="40" viewBox="0 0 40 40" fill="none" xmlns="http://www.w3.org/2000/svg">
<mask id="mask0_83_533" style="mask-type:alpha" maskUnits="userSpaceOnUse" x="0" y="0" width="40" height="40">
<rect width="40" height="40" fill="#D9D9D9"/>
</mask>
<g mask="url(#mask0_83_533)">
<path d="M20 36.6663C17.0556 36.6663 14.6528 36.2011 12.7917 35.2705C10.9306 34.34 10 33.1386 10 31.6663C10 30.9997 10.2014 30.3816 10.6042 29.8122C11.007 29.2427 11.5695 28.7497 12.2917 28.333L14.9167 30.7913C14.6667 30.9025 14.3959 31.0275 14.1042 31.1663C13.8125 31.3052 13.5834 31.4719 13.4167 31.6663C13.7778 32.1108 14.6112 32.4997 15.9167 32.833C17.2223 33.1663 18.5834 33.333 20 33.333C21.4167 33.333 22.7848 33.1663 24.1042 32.833C25.4237 32.4997 26.2639 32.1108 26.625 31.6663C26.4306 31.4441 26.1806 31.2636 25.875 31.1247C25.5695 30.9858 25.2778 30.8608 25 30.7497L27.5834 28.2497C28.3612 28.6941 28.9584 29.2011 29.375 29.7705C29.7917 30.34 30 30.9719 30 31.6663C30 33.1386 29.0695 34.34 27.2084 35.2705C25.3473 36.2011 22.9445 36.6663 20 36.6663ZM20.0417 27.4997C22.7917 25.4719 24.8612 23.4372 26.25 21.3955C27.6389 19.3538 28.3334 17.3052 28.3334 15.2497C28.3334 12.4163 27.4306 10.2775 25.625 8.83301C23.8195 7.38856 21.9445 6.66634 20 6.66634C18.0556 6.66634 16.1806 7.38856 14.375 8.83301C12.5695 10.2775 11.6667 12.4163 11.6667 15.2497C11.6667 17.1108 12.3473 19.0483 13.7084 21.0622C15.0695 23.0761 17.1806 25.2219 20.0417 27.4997ZM20 31.6663C16.0834 28.7775 13.1598 25.9719 11.2292 23.2497C9.29865 20.5275 8.33337 17.8608 8.33337 15.2497C8.33337 13.2775 8.68754 11.5483 9.39587 10.0622C10.1042 8.57606 11.0139 7.33301 12.125 6.33301C13.2362 5.33301 14.4862 4.58301 15.875 4.08301C17.2639 3.58301 18.6389 3.33301 20 3.33301C21.3612 3.33301 22.7362 3.58301 24.125 4.08301C25.5139 4.58301 26.7639 5.33301 27.875 6.33301C28.9862 7.33301 29.8959 8.57606 30.6042 10.0622C31.3125 11.5483 31.6667 13.2775 31.6667 15.2497C31.6667 17.8608 30.7014 20.5275 28.7709 23.2497C26.8403 25.9719 23.9167 28.7775 20 31.6663ZM20 18.333C20.9167 18.333 21.7014 18.0066 22.3542 17.3538C23.007 16.7011 23.3334 15.9163 23.3334 14.9997C23.3334 14.083 23.007 13.2983 22.3542 12.6455C21.7014 11.9927 20.9167 11.6663 20 11.6663C19.0834 11.6663 18.2987 11.9927 17.6459 12.6455C16.9931 13.2983 16.6667 14.083 16.6667 14.9997C16.6667 15.9163 16.9931 16.7011 17.6459 17.3538C18.2987 18.0066 19.0834 18.333 20 18.333Z" fill="white"/>
</g>
</svg>
