<svg width="28" height="29" viewBox="0 0 28 29" fill="none" xmlns="http://www.w3.org/2000/svg">
<mask id="mask0_39_362" style="mask-type:alpha" maskUnits="userSpaceOnUse" x="0" y="0" width="28" height="29">
<rect y="0.5" width="28" height="28" fill="#D9D9D9"/>
</mask>
<g mask="url(#mask0_39_362)">
<path d="M4.66675 22.6668V20.3335H7.00008V12.1668C7.00008 10.5529 7.48619 9.11891 8.45841 7.86475C9.43064 6.61058 10.6945 5.78905 12.2501 5.40016V4.5835C12.2501 4.09739 12.4202 3.68419 12.7605 3.34391C13.1008 3.00363 13.514 2.8335 14.0001 2.8335C14.4862 2.8335 14.8994 3.00363 15.2397 3.34391C15.5799 3.68419 15.7501 4.09739 15.7501 4.5835V5.40016C17.3056 5.78905 18.5695 6.61058 19.5417 7.86475C20.514 9.11891 21.0001 10.5529 21.0001 12.1668V20.3335H23.3334V22.6668H4.66675ZM14.0001 26.1668C13.3584 26.1668 12.8091 25.9384 12.3522 25.4814C11.8952 25.0245 11.6667 24.4752 11.6667 23.8335H16.3334C16.3334 24.4752 16.1049 25.0245 15.648 25.4814C15.1911 25.9384 14.6417 26.1668 14.0001 26.1668ZM9.33341 20.3335H18.6667V12.1668C18.6667 10.8835 18.2098 9.78489 17.2959 8.871C16.382 7.95711 15.2834 7.50016 14.0001 7.50016C12.7167 7.50016 11.6181 7.95711 10.7042 8.871C9.79036 9.78489 9.33341 10.8835 9.33341 12.1668V20.3335Z" fill="white"/>
</g>
</svg>
