<svg width="32" height="24" viewBox="0 0 32 24" fill="none" xmlns="http://www.w3.org/2000/svg">
<g clip-path="url(#clip0_45_656)">
<path d="M31.3313 4.27378C30.9633 2.89272 29.8791 1.80519 28.5022 1.4361C26.0067 0.765314 16 0.765314 16 0.765314C16 0.765314 5.99333 0.765314 3.4978 1.4361C2.12102 1.80519 1.03665 2.89272 0.668678 4.27378C0 6.77685 0 11.9994 0 11.9994C0 11.9994 0 17.2218 0.668678 19.7251C1.03665 21.106 2.12102 22.1935 3.4978 22.5628C5.99333 23.2334 16 23.2334 16 23.2334C16 23.2334 26.0067 23.2334 28.5022 22.5628C29.8791 22.1935 30.9633 21.106 31.3313 19.7251C32 17.2218 32 11.9994 32 11.9994C32 11.9994 32 6.77685 31.3313 4.27378Z" fill="#7E7E7E"/>
<path d="M12.7273 16.7412L21.0909 11.9998L12.7273 7.25796V16.7412Z" fill="#F4F4F4"/>
</g>
<defs>
<clipPath id="clip0_45_656">
<rect width="32" height="22.4681" fill="white" transform="translate(0 0.765625)"/>
</clipPath>
</defs>
</svg>
